<?xml version="1.0" encoding="UTF-8" standalone="no"?>
<!-- Created with Inkscape (http://www.inkscape.org/) -->

<svg
   width="1000mm"
   height="1000mm"
   viewBox="0 0 1000 1000"
   version="1.1"
   id="svg545"
   inkscape:version="1.2.1 (9c6d41e, 2022-07-14)"
   sodipodi:docname="bucket.svg"
   inkscape:export-filename="techsauna.png"
   inkscape:export-xdpi="25.4"
   inkscape:export-ydpi="25.4"
   xmlns:inkscape="http://www.inkscape.org/namespaces/inkscape"
   xmlns:sodipodi="http://sodipodi.sourceforge.net/DTD/sodipodi-0.dtd"
   xmlns="http://www.w3.org/2000/svg"
   xmlns:svg="http://www.w3.org/2000/svg">
  <sodipodi:namedview
     id="namedview547"
     pagecolor="#000000"
     bordercolor="#666666"
     borderopacity="1.0"
     inkscape:showpageshadow="2"
     inkscape:pageopacity="0"
     inkscape:pagecheckerboard="0"
     inkscape:deskcolor="#d1d1d1"
     inkscape:document-units="mm"
     showgrid="true"
     inkscape:zoom="0.14866305"
     inkscape:cx="1056.0795"
     inkscape:cy="1748.9215"
     inkscape:window-width="1713"
     inkscape:window-height="926"
     inkscape:window-x="0"
     inkscape:window-y="38"
     inkscape:window-maximized="0"
     inkscape:current-layer="layer1">
    <inkscape:grid
       type="xygrid"
       id="grid819" />
  </sodipodi:namedview>
  <defs
     id="defs542" />
  <g
     inkscape:label="Layer 1"
     inkscape:groupmode="layer"
     id="layer1">
    <path
       id="path1552"
       style="fill:#ffffff;fill-opacity:1;fill-rule:nonzero;stroke:#000000;stroke-width:0.856427;stroke-dasharray:none;stroke-opacity:1"
       d="m 436.64572,28.929048 c -45.31936,0 -83.61036,41.258593 -83.61036,90.096772 0,16.31245 4.84448,32.76086 14.0233,47.56752 12.88459,20.78095 17.55109,45.51754 13.13982,69.65796 -9.51114,52.13755 -27.38271,81.92532 -37.18999,95.04737 -2.77003,3.69747 -7.01191,5.93408 -11.63971,6.11987 -70.07298,2.86491 -130.50655,8.44145 -174.74905,16.11576 -66.687032,11.56316 -75.675052,24.36375 -75.675052,35.35697 0,0.41932 0.0582,0.84604 0.0875,1.2693 0.005,0.16149 0.014,0.32392 0.0285,0.48683 l 0.0246,0.28945 c 0.0188,0.16097 0.0176,0.31989 0.0406,0.48152 l 7.58656,88.74162 c -1.92558,3.56048 -3.40085,10.63196 -2.54922,26.16742 1.03695,19.11782 4.41144,27.72239 7.50691,31.82351 l 18.604682,217.39191 c -1.0827,3.33665 -1.25004,8.73426 -0.62571,19.02767 0.55033,9.01253 1.65205,19.20955 2.83238,25.99125 0.5356,3.0783 1.11473,6.37079 2.41391,9.10182 l 4.277,49.90222 c 0.36039,13.95311 18.11428,24.07657 57.42168,32.76768 32.65144,7.22458 78.26507,12.89711 131.92944,16.41569 0.19133,0.0176 0.38351,0.0176 0.58872,0.0176 h 8.5e-4 c 4.59011,0 8.46046,-3.57001 8.76912,-8.22283 0.30728,-4.84701 -3.35873,-9.03946 -8.20439,-9.35242 -31.74516,-2.08275 -60.67902,-4.94071 -85.63753,-8.422 l -2.8111,-49.0958 c 26.65644,2.87861 56.8323,5.21374 89.73466,6.90845 l 0.60996,20.93871 c 0.1409,4.76887 4.05124,8.53806 8.7948,8.53806 h 0.2566 c 4.85833,-0.14265 8.67851,-4.19891 8.53635,-9.05849 l -0.57809,-19.58279 c 2.33479,0.10039 4.66992,0.20166 7.02903,0.29658 0.11469,0 0.229,0 0.35748,0 v 8.8e-4 c 4.69202,0 8.58893,-3.71035 8.78161,-8.44154 0.19288,-4.8597 -3.57729,-8.95476 -8.43545,-9.14619 -93.47041,-3.75598 -169.82529,-12.8275 -206.13093,-24.40322 -1.34509,-6.41004 -2.78218,-20.43624 -3.20405,-30.00599 18.85388,5.67758 46.42192,10.69583 80.34856,14.79312 0.4176,0.0863 0.84633,0.13385 1.28174,0.15851 44.84163,5.35922 100.66215,9.11502 162.20308,10.65797 h 0.23193 c 4.75625,0 8.66412,-3.79543 8.78059,-8.57698 0.12839,-4.85811 -3.70472,-8.89558 -8.56289,-9.01869 -15.20637,-0.38111 -30.0938,-0.90805 -44.58453,-1.56126 l -5.94292,-202.93032 c 33.12144,1.46304 68.48158,2.2625 105.1017,2.37838 v 150.52572 c 0,4.8597 3.9488,8.80101 8.80715,8.80101 4.85816,0 8.79309,-3.94131 8.79309,-8.80101 V 575.62331 c 36.16912,-0.1161 71.51557,-0.94689 105.1423,-2.45006 l -1.7233,59.06638 c -0.14106,4.85827 3.67904,8.91088 8.53721,9.05054 h 0.26824 c 4.73244,0 8.6427,-3.76836 8.78315,-8.53716 l 1.76237,-60.42154 c 22.91351,-1.20858 44.93651,-2.72368 65.64474,-4.5629 4.84584,-0.42884 8.42262,-4.7063 7.98669,-9.54358 -0.42462,-4.84012 -4.69183,-8.41768 -9.5375,-7.98045 -57.66339,5.12086 -125.32827,7.82555 -195.65699,7.82555 -90.06833,0 -173.8207,-4.4765 -236.00618,-11.94146 -0.72778,-0.18964 -1.49189,-0.28027 -2.27654,-0.27351 -42.22509,-5.16232 -74.25134,-11.71759 -91.13768,-19.19341 -2.37042,-4.85268 -3.89776,-20.32752 -3.72989,-30.39042 18.60088,7.28751 49.89764,13.66042 90.11799,18.73931 0.59729,0.14107 1.21665,0.21995 1.85073,0.23189 33.1749,4.12831 72.39564,7.35638 115.50301,9.51704 0.42051,0.0618 0.85027,0.0948 1.28704,0.0948 0.0894,0 0.18088,-0.008 0.26824,-0.008 0.0377,-10e-4 0.0748,-0.005 0.11239,-0.008 38.70894,1.91053 80.45733,2.97409 124.01091,2.97409 91.12311,0 176.39287,-4.46353 241.69148,-12.59734 0.28775,-0.0224 0.57174,-0.0594 0.85145,-0.10907 2.95792,-0.3709 5.93006,-0.73901 8.80372,-1.125 4.80661,-0.64674 8.19155,-5.07233 7.55025,-9.89148 -0.58921,-4.34923 -4.25696,-7.52911 -8.51425,-7.61574 l 3.92038,-68.30105 c 42.29823,-5.80827 67.45251,-12.12141 81.98522,-18.51009 -0.38609,4.82113 3.196,9.05901 8.01495,9.47544 0.25693,0.0203 0.51265,0.0328 0.76839,0.0328 4.51319,0 8.35906,-3.46348 8.75576,-8.05213 l 1.6916,-19.71476 c 0.0215,-0.14617 0.0197,-0.2897 0.0372,-0.4355 l 0.0282,-0.32838 c 0.014,-0.15533 0.0215,-0.31065 0.0266,-0.4647 0.0305,-0.4307 0.0895,-0.8648 0.0895,-1.29143 0,-10.99323 -8.98751,-23.7938 -75.67608,-35.35697 -44.24265,-7.6743 -104.67468,-13.25083 -174.76053,-16.11574 -4.61511,-0.18581 -8.86007,-2.42241 -11.62718,-6.11988 -9.80867,-13.12205 -27.67852,-42.91681 -37.19101,-95.04737 -4.40992,-24.14044 0.25487,-48.88121 13.14083,-69.65798 9.1648,-14.81224 14.0233,-31.26064 14.0233,-47.56752 0,-48.838152 -38.29288,-90.096763 -83.60968,-90.096763 z m 0,17.59306 c 35.78047,0 66.0077,33.20464 66.0077,72.503712 0,13.03123 -3.93475,26.27367 -11.38292,38.29919 -15.17812,24.49242 -20.69024,53.64492 -15.4998,82.08625 10.16631,55.66318 29.67793,88.05917 40.40862,102.41883 5.96175,7.96622 15.07637,12.76721 25.01228,13.17088 65.24001,2.66801 122.35287,7.73722 165.19578,14.65441 51.06186,8.24285 64.35584,16.35165 67.60083,19.20403 -3.95034,3.33848 -22.58842,14.49238 -101.77893,24.02452 -64.07218,7.71619 -147.73495,11.96533 -235.56356,11.96533 -87.82843,0 -171.49241,-4.24914 -235.57863,-11.96533 -79.18744,-9.53214 -97.81575,-20.68604 -101.764732,-24.02452 3.230952,-2.85238 16.524582,-10.96118 67.599292,-19.20403 42.83143,-6.91719 99.95766,-11.9864 165.185,-14.65441 33.69062,-1.37869 68.86819,-2.07741 104.55907,-2.07741 4.85817,0 8.7931,-3.93475 8.7931,-8.79299 0,-4.86524 -3.93493,-8.80187 -8.7931,-8.80187 -25.61607,0 -50.96252,0.36104 -75.70075,1.06838 11.07634,-16.36123 27.52246,-47.42776 36.56155,-96.98582 5.19216,-28.44133 -0.30816,-57.59383 -15.48643,-82.08625 -7.44799,-12.02552 -11.38466,-25.26097 -11.38466,-38.29919 0,-39.299072 30.22999,-72.503712 66.01029,-72.503712 z m 0,37.762811 c -17.48584,0 -31.70304,15.581654 -31.70304,34.740901 0,19.15925 14.2172,34.74888 31.70304,34.74888 17.47317,0 31.69172,-15.58963 31.69172,-34.74888 0,-19.159247 -14.21855,-34.740901 -31.69172,-34.740901 z m 0,17.593061 c 7.76934,0 14.10122,7.69254 14.10122,17.14784 0,9.45948 -6.33188,17.15403 -14.10122,17.15403 -7.78184,0 -14.1021,-7.69455 -14.1021,-17.15403 0,-9.4553 6.32026,-17.14784 14.1021,-17.14784 z m 449.67586,258.35064 c -8.38766,8.8e-4 -16.77464,3.19489 -23.15896,9.57989 L 602.36719,630.59774 c -10.1788,10.18434 -21.08729,19.87543 -32.40752,28.80411 l -92.54172,72.97775 c -19.85418,12.90082 -41.26672,30.42815 -62.18205,51.34326 -52.54809,52.55347 -92.8154,118.68018 -68.11075,143.39741 0.0294,0.0299 0.0608,0.0563 0.0903,0.0846 3.13811,3.43691 39.82451,42.33249 94.78811,43.82926 1.08953,0.0317 2.16708,0.0441 3.24397,0.0441 36.80577,0 72.59669,-17.12702 106.40466,-50.94043 65.70247,-65.70068 71.92013,-129.14688 76.471,-175.47752 2.85945,-29.21489 5.12983,-52.29112 20.12621,-67.29593 L 909.4821,416.13241 c 12.76727,-12.77422 12.76727,-33.55526 0,-46.32388 -6.385,-6.38849 -14.77301,-9.58075 -23.16052,-9.57988 z m -0.005,17.58954 c 3.88284,0 7.76742,1.47668 10.72879,4.43102 5.91002,5.91147 5.91002,15.52448 0,21.43459 l -261.23,261.23153 c -19.46093,19.46656 -22.12766,46.60696 -25.2036,78.02753 -4.52724,46.12106 -10.15516,103.50927 -71.39464,164.75403 -31.20561,31.19567 -63.71523,46.55536 -96.54685,45.75351 -25.38945,-0.646 -46.67063,-10.98321 -61.3234,-20.77592 29.11679,-7.18538 70.02572,-34.50578 109.18035,-73.66008 52.54827,-52.54801 92.81506,-118.67894 68.11177,-143.3974 -4.94893,-4.94076 -11.76884,-7.44668 -20.29372,-7.44668 -0.61661,0 -1.25398,0.0317 -1.88806,0.0581 l 44.39783,-35.01157 c 11.85929,-9.3519 23.28265,-19.5063 33.96023,-30.17959 L 875.5974,382.24915 c 2.95434,-2.95433 6.83619,-4.431 10.71906,-4.431 z m -785.97561,31.84738 c 14.52998,6.39009 39.6863,12.70499 81.9996,18.5145 l 3.90343,68.20547 c -38.86669,-5.31487 -66.23844,-11.64488 -80.02296,-18.04715 z m 99.75281,20.81498 c 30.09021,3.59627 64.24212,6.43798 101.10442,8.44604 l 1.99598,67.91247 c -37.66221,-2.02177 -70.9385,-4.84423 -99.18807,-8.19021 z m 473.10188,0 -3.90873,68.1143 c -29.57805,3.4911 -63.0402,6.25102 -99.18104,8.20084 l 1.97474,-67.86823 c 36.86607,-2.00805 71.02278,-4.85045 101.11503,-8.44691 z m -354.36981,9.33913 c 34.61145,1.60196 71.32047,2.4794 109.01215,2.59967 v 67.77881 c -38.46331,-0.11814 -74.26126,-1.00207 -107.02763,-2.48812 z m 235.63792,0 -1.97305,67.84787 c -33.95388,1.55199 -69.96233,2.40999 -107.05247,2.52797 v -67.77617 c 37.69305,-0.12006 74.40754,-0.99738 109.02552,-2.59967 z M 112.10971,547.20678 c 18.31537,5.87129 44.98536,11.04458 77.9314,15.31562 l 11.66094,203.27294 c -31.325,-4.08673 -56.20848,-8.96938 -72.12313,-14.35866 z m 95.68821,17.45767 c 28.80574,3.24523 61.6711,5.83394 97.30805,7.69629 l 5.94463,202.948 c -33.50872,-1.79704 -64.48773,-4.29878 -91.59089,-7.35457 z m 557.44175,27.63853 c -4.4608,0.0649 -8.22701,3.51544 -8.6107,8.053 l -12.93102,151.09567 c -15.75052,5.34402 -40.34899,10.24534 -72.1248,14.39845 l 3.72647,-64.84597 c 0.26824,-4.85407 -3.43615,-9.00635 -8.28318,-9.28868 -4.85835,-0.28759 -9.01082,3.42881 -9.2931,8.28152 l -3.89723,68.01197 c -0.41983,0.0475 -0.82288,0.0968 -1.24457,0.14442 -4.82049,0.53927 -8.30682,4.89198 -7.75375,9.71804 0.53647,4.82612 4.85662,8.30559 9.71616,7.7679 2.85344,-0.31876 5.64865,-0.64564 8.4132,-0.97638 0.20776,-0.0176 0.4133,-0.0423 0.61697,-0.0757 34.52649,-4.1503 62.02361,-9.21558 80.74697,-14.86393 -0.41074,9.61027 -1.84508,23.70972 -3.19172,30.10163 -18.10982,5.74311 -46.28882,10.91723 -82.40758,15.15171 -0.23708,0.0176 -0.47123,0.0457 -0.7028,0.0828 -5.13428,0.59861 -10.42443,1.17892 -15.87148,1.73844 -4.83316,0.49453 -8.34535,4.81941 -7.84675,9.65252 0.46248,4.52566 4.28283,7.89718 8.7443,7.89718 0.29341,0 0.60207,-0.0176 0.91071,-0.0441 2.0652,-0.21222 4.08071,-0.43237 6.10392,-0.65057 l -2.82175,49.11873 c -11.5376,1.61023 -24.46639,3.16164 -38.98521,4.60451 -4.83453,0.48045 -8.36028,4.79547 -7.88393,9.62856 0.45956,4.53835 4.2794,7.92912 8.75492,7.92912 h 0.005 c 0.28073,0 0.57484,-0.0176 0.87099,-0.0458 16.77294,-1.66869 32.388,-3.58607 46.63809,-5.70387 0.19251,-0.0229 0.38315,-0.0511 0.57192,-0.0846 20.31546,-3.03478 37.80951,-6.4819 51.69579,-10.22861 29.53643,-7.97325 42.90747,-17.03208 43.21341,-29.31315 l 4.26106,-49.71449 c 1.31717,-2.72275 1.90246,-6.0082 2.44031,-9.08243 1.17895,-6.75653 2.29554,-16.99863 2.83339,-26.1089 0.60721,-10.31595 0.43763,-15.73628 -0.64079,-19.08437 l 13.15233,-153.71388 c 0.41074,-4.8457 -3.17992,-9.10725 -8.02558,-9.51792 -0.30284,-0.0264 -0.60292,-0.0381 -0.90028,-0.0336 z M 538.34502,725.76509 c 3.67784,0 6.31958,0.77667 7.84504,2.29515 10.26959,10.27503 -11.14039,61.55454 -68.11246,118.51092 -48.35625,48.36989 -91.26425,70.40099 -110.65957,70.40099 -3.67938,0 -6.32127,-0.77685 -7.84674,-2.2951 -10.28226,-10.27386 11.1529,-61.54756 68.11245,-118.51097 20.89526,-20.89574 40.76368,-36.86585 58.16268,-48.27796 0.54434,-0.26876 1.07052,-0.59193 1.56589,-0.98338 l 0.23004,-0.1814 c 22.05247,-14.2053 39.97473,-20.95825 50.70267,-20.95825 z m -402.9888,93.21181 c 17.69855,4.79612 41.47022,9.05919 70.13243,12.63799 l 2.77396,48.45777 c -7.23357,-1.19459 -14.06048,-2.4452 -20.39975,-3.75299 -41.43356,-8.55003 -48.30639,-16.49129 -49.11384,-17.68425 -0.009,-0.0828 -0.009,-0.17259 -0.0257,-0.261 z m 602.5672,0.0951 -3.36542,39.30277 c 0,0.0951 -0.0176,0.19655 -0.0176,0.29289 -2.15923,3.78274 -18.8527,13.00466 -69.51462,21.39725 l 2.77671,-48.46551 c 28.84856,-3.59096 52.60241,-7.83061 70.12096,-12.5274 z" />
  </g>
</svg>
